<svg version="1.1" id="Layer_1" xmlns="http://www.w3.org/2000/svg" xlink="http://www.w3.org/1999/xlink" x="0px" y="0px" width="512px" height="512px" viewBox="0 0 512 512" enable-background="new 0 0 512 512" space="preserve" fill="#454646"><path d="M428.79999,64.0001H83.20394C72.63293,64.0001,64,72.64192,64,83.20849v345.59158	c0,10.5582,8.63293,19.20001,19.20394,19.20001h345.59604c10.55426,0,19.20001-8.64182,19.20001-19.20001V83.20849	C448,72.64192,439.35425,64.0001,428.79999,64.0001z M185.2957,424.34396H92.41216V339.9729h92.88354V424.34396z	 M185.2957,326.92935H92.41216V136.34398h92.88354V326.92935z M342.31219,424.34396H198.3329v-33.29401h143.97929V424.34396z	 M342.31219,378.01871H198.3329v-121.806h143.97929V378.01871z M342.31219,243.16469H198.3329V136.34398h143.97929V243.16469z	 M419.68353,424.34396h-64.32928V190.87935h64.32928V424.34396z M419.68353,177.82941h-64.32928v-41.48543h64.32928V177.82941z"></path></svg>