<svg version="1.1" id="Layer_1" xmlns="http://www.w3.org/2000/svg" xlink="http://www.w3.org/1999/xlink" x="0px" y="0px" width="512px" height="512px" viewBox="0 0 512 512" enable-background="new 0 0 512 512" space="preserve" fill="#454646"><path d="M428.60263,64.0001H302.82669c-10.66733,0-19.39545,8.72812-19.39545,19.39544v32.96003h92.25983	c10.97714,0,19.95547,8.97772,19.95547,19.95142v92.26378h32.95609c10.66772,0,19.39536-8.72812,19.39536-19.39534V83.39554	C447.99799,72.72822,439.27036,64.0001,428.60263,64.0001z"></path><path d="M428.60263,283.42941h-32.95609v92.26379c0,10.97369-8.97833,19.95142-19.95547,19.95142h-92.25983v32.96002	c0,10.66733,8.72812,19.39545,19.39545,19.39545h125.77594c10.66772,0,19.39536-8.72812,19.39536-19.39545V302.82474	C447.99799,292.15753,439.27036,283.42941,428.60263,283.42941z"></path><path d="M116.35739,136.30699c0-10.9737,8.97438-19.95142,19.94759-19.95142h92.26378V83.39554	c0-10.66732-8.72812-19.39544-19.39543-19.39544H83.39735c-10.66772,0-19.39533,8.72812-19.39533,19.39544v125.77989	c0,10.66722,8.72762,19.39534,19.39533,19.39534h32.96004V136.30699z"></path><path d="M136.30498,395.64462c-10.97321,0-19.94759-8.97772-19.94759-19.95142v-92.26379H83.39735	c-10.66772,0-19.39533,8.72812-19.39533,19.39532v125.77991c0.00001,10.66733,8.72762,19.39545,19.39533,19.39545h125.77596	c10.66731,0,19.39543-8.72812,19.39543-19.39545v-32.96002H136.30498z"></path><path d="M372.37241,159.02119c0-10.66782-8.72772-19.39543-19.39542-19.39543H159.02646	c-10.66722,0-19.39534,8.72762-19.39534,19.39543v193.9579c0,10.66772,8.72812,19.39532,19.39534,19.39532h193.95053	c10.66769,0,19.39542-8.7276,19.39542-19.39532V159.02119z"></path></svg>