<svg version="1.1" id="Layer_1" xmlns="http://www.w3.org/2000/svg" xlink="http://www.w3.org/1999/xlink" x="0px" y="0px" width="512px" height="512px" viewBox="0 0 512 512" enable-background="new 0 0 512 512" space="preserve" fill="#454646"><path d="M295.65411,83.6552c0-21.9006-17.75351-39.6551-39.65512-39.6551S216.3439,61.7536,216.3439,83.6552h-28.83	V147.98h136.97221V83.6552H295.65411z M255.99899,100.7121c-9.4189,0-17.05589-7.638-17.05589-17.0569	s7.636-17.0569,17.05589-17.0569c9.41879,0,17.05591,7.638,17.05591,17.0569S265.41779,100.7121,255.99899,100.7121z"></path><path d="M388.40109,83.6067h-40.93118v29.8971h32.3895v324.59821H132.1395V113.5038h32.39061V83.6067H123.5979	c-11.7458,0-21.3554,9.6097-21.3554,21.3555v341.6824c0,11.74591,9.6096,21.3555,21.3554,21.3555h264.8042	c11.74579,0,21.35541-9.60971,21.35541-21.3555V104.9622C409.7565,93.2164,400.14691,83.6067,388.40109,83.6067z"></path><path d="M186.6048,380.83099L151.283,345.51868l16.3273-16.31778l18.9933,18.98959l43.51849-43.51279l16.3174,16.319	L186.6048,380.83099z"></path><polygon points="237.731,262.65259 210.8055,235.72729 237.7305,208.80399 224.4631,195.53589 197.5386,222.46019 	170.6152,195.5369 157.34911,208.80249 184.272,235.72679 157.3474,262.65158 170.61279,275.9173 197.5383,248.99339 	224.46359,275.91968 "></polygon><path d="M348.97989,246.1467H259c-1.65689,0-3-1.3432-3-3v-14c0-1.65691,1.34311-3,3-3h89.97989	c1.65692,0,3,1.34309,3,3v14C351.97989,244.8035,350.63681,246.1467,348.97989,246.1467z"></path><path d="M348.97989,361.97998H259c-1.65689,0-3-1.34308-3-3v-14c0-1.6568,1.34311-3,3-3h89.97989	c1.65692,0,3,1.3432,3,3v14C351.97989,360.6369,350.63681,361.97998,348.97989,361.97998z"></path></svg>