<svg version="1.1" id="Layer_1" xmlns="http://www.w3.org/2000/svg" xlink="http://www.w3.org/1999/xlink" x="0px" y="0px" width="512px" height="512px" viewBox="0 0 512 512" enable-background="new 0 0 512 512" space="preserve" fill="#454646"><desc>Created with Sketch.</desc><g id="aws-icons_DT">	<g id="amazon-api-gateway">		<g id="Amazon-API-Gateway">			<g id="Icon_Test">				<path id="Shape" d="M338.9,432.9c-1.5,0-3-0.5-4.3-1.4c-1.9-1.4-3-3.5-3.1-5.9V92.4c0-2.5,1.3-4.8,3.5-6.2					c2.2-1.4,5-1.5,7.3-0.4l94.6,46c2.5,1.2,4.1,3.7,4.1,6.4v256c0.2,3.3-1.9,6.2-5,7.2l-94.6,31.3C340.6,433,339.8,433,338.9,432.9					z M346.2,104v311.5l80-26.4V142.8L346.2,104z"></path>				<path id="Shape_1_" d="M178.8,432.9c-0.8,0.1-1.6,0.1-2.3,0l-94.6-31.3c-3.1-1-5.1-4-4.9-7.2v-256					c0-2.7,1.6-5.2,4.1-6.4l94.6-46c2.3-1.2,5.1-1,7.3,0.4c2.1,1.3,3.4,3.7,3.4,6.2v333.3c0,2.3-1.1,4.5-3.1,5.9					C182,432.5,180.4,432.9,178.8,432.9z M91.5,389.4l80,26.4V104.3l-80,38.9V389.4z"></path>				<path id="Shape_2_" d="M331.6,186.5h-21.8V172h21.8V186.5z M288,186.5h-21.8V172H288V186.5z M244.3,186.5h-21.8					V172h21.8V186.5z M200.7,186.5h-21.8V172h21.8V186.5z"></path>				<path id="Shape_3_" d="M331.6,345.9h-21.8v-14.5h21.8V345.9z M288,345.9h-21.8v-14.5H288V345.9z M244.3,345.9					h-21.8v-14.5h21.8V345.9z M200.7,345.9h-21.8v-14.5h21.8V345.9z"></path>				<path id="Shape_4_" d="M226.9,283.9l-27.4-23.3c-1.6-1.4-2.5-3.4-2.5-5.5s0.9-4.1,2.5-5.5l27.3-23.3l9.5,11					l-20.8,18l20.8,17.8L226.9,283.9z"></path>				<path id="Shape_5_" d="M290.9,283.9l-9.5-11l20.8-17.5l-20.9-17.7l9.5-11.3l27.4,23.2c1.6,1.4,2.5,3.4,2.5,5.5					c0,2.1-0.9,4.1-2.5,5.5L290.9,283.9z"></path>				<polygon id="Rectangle-path" points="237.5,299.2 266.4,214 280.2,218.7 251.2,303.8 				"></polygon>			</g>		</g>	</g></g></svg>