<svg version="1.1" id="Layer_1" xmlns="http://www.w3.org/2000/svg" xlink="http://www.w3.org/1999/xlink" x="0px" y="0px" width="512px" height="512px" viewBox="0 0 512 512" enable-background="new 0 0 512 512" space="preserve" fill="#454646"><path d="M355.99588,83.67178H156L56,256.0083l100,172.3201h199.99588L456,256.0083L355.99588,83.67178z	 M180.03526,362.28915c-32.84801-23.64105-54.25779-62.17212-54.25779-105.73813c0-71.91399,58.30074-130.21481,130.22253-130.21481	c14.70706,0,28.82809,2.47231,42.01578,6.96862l-8.69135,14.46443c-10.53915-3.2299-21.72696-4.97232-33.32443-4.97232	c-62.832,0-113.76181,50.92926-113.76181,113.75409c0,37.46506,18.11726,70.69495,46.06232,91.42169L180.03526,362.28915z	 M250.68747,212.06303l-36.46895,60.67949c-1.94894-5.03189-3.05821-10.47705-3.05821-16.1915	C211.16031,233.59367,228.43369,214.68735,250.68747,212.06303z M269.10547,299.43347l23.66-68.50328	c5.07452,7.26558,8.07053,16.08548,8.07053,25.62083C300.836,276.75766,287.46893,293.82388,269.10547,299.43347z	 M248.90242,321.15219l-38.87126-18.14453L316.20306,126.3362L248.90242,321.15219z M331.95706,362.28915l-8.2659-14.31644	c27.94568-20.72675,46.06653-53.95663,46.06653-91.42169c0-40.34735-21.02737-75.75757-52.69528-95.95694l5.5119-15.95294	c38.10138,22.722,63.64053,64.32358,63.64053,111.90988C386.21484,300.11703,364.80453,338.6481,331.95706,362.28915z"></path></svg>