<svg version="1.1" id="Layer_1" xmlns="http://www.w3.org/2000/svg" xlink="http://www.w3.org/1999/xlink" x="0px" y="0px" width="512px" height="512px" viewBox="0 0 512 512" enable-background="new 0 0 512 512" space="preserve" fill="#454646"><desc>Created with Sketch.</desc><g id="aws-icons_DT">	<g id="aws-cost-and-usage-report">		<g id="AWS-Cost-and-Usage-Report">			<g id="Icon_Test">				<path id="Shape" d="M441.7,181.2c-0.3-1.3-1-2.5-1.9-3.4l-58.5-58c-1-0.9-2.1-1.6-3.4-1.9					c-0.6-0.1-1.2-0.1-1.8,0H259c-4,0-7.3,3.2-7.3,7.2v159.2h14.6V132.2h102.4v50.7c0,4,3.3,7.2,7.3,7.2h51.2v195.6H266.3v-58h-14.6					V393c0,4,3.3,7.2,7.3,7.2h175.5c4,0,7.3-3.2,7.3-7.2V182.9C441.9,182.3,441.8,181.8,441.7,181.2L441.7,181.2z M383.1,175.7					v-33.3l33.8,33.3H383.1z"></path>				<rect id="Rectangle-path" x="390.7" y="211.9" width="21.9" height="14.5"></rect>				<rect id="Rectangle-path_1_" x="368.7" y="298.8" width="43.9" height="14.5"></rect>				<path id="Shape_1_" d="M193.2,298.8V117.7c0-4-3.3-7.2-7.3-7.2h-44.8c-3.7-16.2-19.1-27-35.8-25.2					s-29.2,15.8-29.2,32.4s12.6,30.5,29.2,32.4s32-9,35.8-25.2h37.4v79.7h-37.4c-3.7-16.2-19.1-27-35.8-25.2s-29.2,15.8-29.2,32.4					s12.6,30.5,29.2,32.4s32-9,35.8-25.2h37.4v79.7h-37.4c-3.7-16.2-19.1-27-35.8-25.2s-29.2,15.8-29.2,32.4s12.6,30.5,29.2,32.4					s32-9,35.8-25.2h37.4V393h-37.4c-3.7-16.2-19.1-27-35.8-25.2s-29.2,15.8-29.2,32.4s12.6,30.5,29.2,32.4s32-9,35.8-25.2h44.8					c4,0,7.3-3.2,7.3-7.2v-86.9h160.9v-14.5L193.2,298.8L193.2,298.8z M109.1,135.8c-10.1,0-18.3-8.1-18.3-18.1s8.2-18.1,18.3-18.1					s18.3,8.1,18.3,18.1c0,4.8-1.9,9.4-5.4,12.8C118.6,133.9,113.9,135.8,109.1,135.8L109.1,135.8z M109.1,230					c-10.1,0-18.3-8.1-18.3-18.1s8.2-18.1,18.3-18.1s18.3,8.1,18.3,18.1C127.4,221.9,119.2,230,109.1,230z M109.1,324.2					c-10.1,0-18.3-8.1-18.3-18.1S99,288,109.1,288s18.3,8.1,18.3,18.1S119.2,324.2,109.1,324.2z M109.1,418.4					c-10.1,0-18.3-8.1-18.3-18.1s8.2-18.1,18.3-18.1s18.3,8.1,18.3,18.1S119.2,418.4,109.1,418.4z"></path>				<rect id="Rectangle-path_2_" x="281" y="211.9" width="87.8" height="14.5"></rect>				<rect id="Rectangle-path_3_" x="390.7" y="248.1" width="21.9" height="14.5"></rect>				<rect id="Rectangle-path_4_" x="281" y="248.1" width="51.2" height="14.5"></rect>			</g>		</g>	</g></g></svg>