<svg version="1.1" id="Layer_1" xmlns="http://www.w3.org/2000/svg" xlink="http://www.w3.org/1999/xlink" x="0px" y="0px" width="512px" height="512px" viewBox="0 0 512 512" style="enable-background:new 0 0 512 512;" space="preserve" fill="#454646"><path d="M347.5,206c-4.9,0-9.4,2.9-11.4,7.4l-14.2,52c-2,4.5-6.5,7.3-11.4,7.3h-109c-4.9,0-9.4-2.8-11.4-7.3l-14.2-52	c-2-4.5-6.5-7.4-11.4-7.4H56v245.8h400V206H347.5z"></path><path d="M419.6,126.8h-327c-4.1,0-7.5,3.3-7.5,7.5v55h33.3v-29.2h275.3v29.2h33.3v-55	C427.1,130.2,423.8,126.8,419.6,126.8z"></path><path d="M377.7,60.2H134.3c-4.1,0-7.5,3.3-7.5,7.5v42.5h33.3V93.5h191.7v16.7h33.3V67.6	C385.2,63.5,381.8,60.2,377.7,60.2z"></path></svg>