<svg version="1.1" id="Layer_1" xmlns="http://www.w3.org/2000/svg" xlink="http://www.w3.org/1999/xlink" x="0px" y="0px" width="512px" height="512px" viewBox="0 0 512 512" enable-background="new 0 0 512 512" space="preserve" fill="#ffffff"><path d="M100,120.0001h312c2.20914,0,4,1.79086,4,4v39.99999c0,2.20914-1.79086,4-4,4H100c-2.20914,0-4-1.79086-4-4	V124.0001C96,121.79096,97.79086,120.0001,100,120.0001z"></path><path d="M100,344.00009h312c2.20914,0,4,1.79086,4,4v40c0,2.20914-1.79086,4-4,4H100c-2.20914,0-4-1.79086-4-4v-40	C96,345.79095,97.79086,344.00009,100,344.00009z"></path><path d="M100,232.00009h312c2.20914,0,4,1.79086,4,4v40c0,2.20914-1.79086,4-4,4H100c-2.20914,0-4-1.79086-4-4v-40	C96,233.79095,97.79086,232.00009,100,232.00009z"></path></svg>