<svg version="1.1" id="Layer_1" xmlns="http://www.w3.org/2000/svg" xlink="http://www.w3.org/1999/xlink" x="0px" y="0px" width="512px" height="512px" viewBox="0 0 512 512" enable-background="new 0 0 512 512" space="preserve" fill="#454646"><path d="M448.57651,323.15051c-1.4393-2.21448-2.61124-6.18713-2.61124-8.82605V94.24199	c0-2.6389-2.15988-4.8008-4.79929-4.8008H70.83014c-2.6404,0-4.80029,2.1619-4.80029,4.8008v220.08247	c0,2.63892-1.1768,6.61157-2.61222,8.82605l-44.80551,69.08902C17.17281,394.4549,16,398.42764,16,401.06656v16.69214	c0,2.63892,2.16189,4.80029,4.79841,4.80029h470.40228c2.63742,0,4.79932-2.16138,4.79932-4.80029v-16.69214	c0-2.63892-1.17093-6.61166-2.61212-8.82703L448.57651,323.15051z M197.37706,383.5307c-2.6394,0-4.04953-2.02576-3.12567-4.49973	l5.04836-13.57535c0.91898-2.47549,3.83463-4.49976,6.47403-4.49976h100.45245c2.6394,0,5.55505,2.02426,6.47302,4.49976	l5.04547,13.57535c0.918,2.47397-0.48825,4.49973-3.12766,4.49973H197.37706z M416.84152,298.99136	c0,2.6394-2.15891,4.80029-4.79929,4.80029H99.98985c-2.63741,0-4.79931-2.16089-4.79931-4.80029V127.65597	c0-2.63891,2.1619-4.7993,4.79931-4.7993h312.05237c2.64038,0,4.79929,2.16039,4.79929,4.7993V298.99136z"></path></svg>