<svg version="1.1" id="Layer_1" xmlns="http://www.w3.org/2000/svg" xlink="http://www.w3.org/1999/xlink" x="0px" y="0px" width="512px" height="512px" viewBox="0 0 512 512" enable-background="new 0 0 512 512" space="preserve" fill="#454646"><rect x="155.96974" y="43.99998" width="312.0567" height="64"></rect><rect x="155.96974" y="164.00002" width="312.0567" height="64"></rect><rect x="155.96974" y="284.00006" width="312.0567" height="64"></rect><rect x="155.96974" y="404.00009" width="312.0567" height="64"></rect><path d="M82.02262,120.0001V50.41871l-17.90599,5.88351h-0.89581V40.31388l25.96487-8.31378h13.94239v88H82.02262z"></path><path d="M112.17042,240.00009H54.17849v-14.1813c21.52569-21.65158,34.94778-33.80699,34.94778-46.4693	c0-7.34383-4.5587-11.77551-14.43476-11.77551c-8.23061,0-18.48656,3.16557-18.48656,3.16557h-0.88679v-15.95377	c0,0,10.25707-2.78569,22.53836-2.78569c23.42515,0,33.5541,10.25595,33.5541,24.6907c0,19.24579-17.72678,31.9081-33.6811,46.84863	h34.4409C112.17041,223.53943,112.17041,240.00009,112.17042,240.00009z"></path><path d="M62.24059,306.97443h9.90333c4.38751,0,8.14745,0,11.78275-2.13089	c2.75846-1.62958,4.51324-4.13715,4.51324-8.0228c0-5.89194-3.88567-9.40204-13.28826-9.40204	c-8.77502,0-18.92871,3.134-18.92871,3.134h-1.00257v-15.66953c0,0,9.7776-2.88309,22.31365-2.88309	c21.0596,0,32.59198,8.14801,32.59198,22.06274c0,10.90588-7.14487,17.42429-16.92246,19.68091	c10.9059,1.75479,18.80298,8.90021,18.80298,20.80923c-0.00002,15.91989-14.16512,25.44711-36.85487,25.44711	c-12.53495,0-20.80923-2.88309-20.80923-2.88309v-15.66953h0.87794c0,0,10.02906,3.134,19.30482,3.134	c10.40517,0,15.79526-4.01138,15.79526-10.7807c0-4.26233-2.00626-7.2706-5.01398-9.02594	c-3.76104-2.13089-8.90075-2.13089-13.28826-2.13089h-9.7776V306.97443z"></path><path d="M106.06984,462.86047v17.13962H86.88316v-17.13962H48V447.7674l34.27921-55.7673h23.79063v54.74432h12.27907	v16.11606H106.06984z M86.88316,446.74442v-33.51169l-20.46511,33.51169H86.88316z"></path></svg>