<svg version="1.1" id="Layer_1" xmlns="http://www.w3.org/2000/svg" xlink="http://www.w3.org/1999/xlink" x="0px" y="0px" width="512px" height="512px" viewBox="0 0 512 512" enable-background="new 0 0 512 512" space="preserve" fill="#454646"><path d="M216.28197,410.68256c0-50.29697,75.71217-50.29697,75.71217,0	C291.99414,460.43927,216.28197,460.43927,216.28197,410.68256z"></path><path d="M317.27716,282.5018c-21.67505,15.55316-33.39041,36.15359-33.39041,62.73911l-60.03712-0.53781	c0-46.40833,19.3495-72.15015,50.59456-98.4619c27.47275-23.13606,62.95178-38.31773,62.95178-69.20445	c0-49.21539-45.43146-60.0342-83.83154-60.0342s-83.83145,18.93215-84.36774,61.65752h-58.9576	c0-80.58574,70.3127-114.65997,144.40549-114.65997c74.64,0,147.11632,37.65211,147.11632,107.07211	C401.76089,230.33719,351.10965,258.22052,317.27716,282.5018z"></path></svg>